<?xml version="1.0" standalone="no"?>
<!DOCTYPE svg PUBLIC "-//W3C//DTD SVG 20010904//EN"
 "http://www.w3.org/TR/2001/REC-SVG-20010904/DTD/svg10.dtd">
<svg version="1.0" xmlns="http://www.w3.org/2000/svg"
 width="735.000000pt" height="465.000000pt" viewBox="0 0 735.000000 465.000000"
 preserveAspectRatio="xMidYMid meet">

<g transform="translate(0.000000,465.000000) scale(0.100000,-0.100000)"
fill="#000000" stroke="none">
<path d="M4055 4259 c-71 -13 -136 -31 -165 -46 -14 -7 -30 -13 -36 -13 -46 0
-221 -109 -301 -188 -83 -81 -133 -163 -176 -287 -30 -85 -32 -97 -31 -235 1
-115 5 -161 22 -223 68 -247 196 -458 417 -684 84 -86 111 -124 88 -123 -21 1
-123 29 -155 43 -21 9 -38 14 -38 12 0 -3 -17 2 -37 9 -135 51 -181 69 -208
81 -16 7 -59 25 -94 40 -71 29 -381 182 -451 222 -96 54 -187 107 -220 129
-19 12 -67 42 -105 66 -225 139 -493 340 -638 477 -46 44 -48 42 -79 -84 -19
-77 -22 -118 -22 -285 0 -207 11 -287 69 -486 40 -139 128 -344 212 -497 39
-70 52 -107 38 -107 -3 0 -76 37 -163 82 -178 93 -445 223 -481 233 -28 8 -27
3 8 -130 12 -44 26 -98 32 -120 6 -21 14 -44 18 -50 4 -5 21 -41 37 -80 16
-38 46 -100 66 -136 21 -36 38 -71 38 -78 0 -6 4 -11 8 -11 5 0 14 -12 21 -26
22 -49 153 -217 240 -307 167 -174 329 -294 528 -392 65 -32 130 -64 145 -72
14 -7 35 -13 46 -13 12 0 24 -5 27 -10 4 -6 10 -8 15 -5 5 3 11 1 14 -4 15
-24 376 -90 376 -69 0 4 -6 8 -13 8 -18 0 -171 74 -232 113 -286 179 -548 471
-704 783 -87 174 -78 200 31 97 151 -142 346 -268 548 -354 67 -28 338 -126
350 -126 19 0 87 -16 95 -23 17 -13 285 -57 285 -46 0 3 -51 30 -112 61 -144
71 -275 165 -401 285 -301 288 -531 667 -598 985 -25 121 -25 175 0 175 10 0
23 -6 29 -13 10 -12 69 -53 195 -135 26 -18 50 -32 51 -32 2 0 33 -18 69 -39
148 -90 394 -199 721 -318 151 -55 289 -106 401 -148 86 -32 240 -101 294
-132 150 -86 290 -210 362 -319 56 -84 68 -69 50 59 -14 94 -34 162 -70 237
-46 95 -19 93 87 -5 170 -159 261 -341 262 -526 0 -66 -30 -191 -64 -265 -49
-108 -159 -242 -271 -333 l-40 -33 38 16 c87 37 108 47 168 82 102 59 216 152
268 218 94 118 131 221 131 361 0 120 -26 219 -90 343 -115 224 -311 427 -635
657 -320 228 -566 480 -671 687 -72 142 -96 330 -58 459 41 141 138 258 272
327 196 103 440 119 573 39 49 -30 57 -41 109 -142 70 -141 105 -190 210 -299
165 -171 422 -338 461 -299 19 19 0 49 -61 96 -88 69 -115 115 -114 196 0 51
7 83 33 144 46 108 47 171 5 224 -17 21 -52 54 -78 74 -112 85 -391 195 -569
224 -100 16 -302 18 -382 4z"/>
<path d="M1810 1224 c-122 -39 -233 -100 -284 -154 -53 -57 -63 -87 -42 -127
60 -117 302 -220 686 -293 52 -9 103 -21 113 -25 9 -4 17 -3 17 1 0 5 -48 22
-108 38 -203 54 -326 113 -401 190 -37 38 -45 52 -49 94 -3 37 0 56 14 78 33
49 86 92 166 132 l76 39 -33 26 c-41 32 -57 32 -155 1z"/>
<path d="M5382 1146 c72 -38 151 -101 172 -137 24 -40 25 -123 2 -167 -58
-112 -324 -227 -711 -308 -229 -48 -203 -44 -470 -73 -104 -12 -221 -26 -260
-31 -118 -17 -615 -32 -885 -26 l-255 5 135 -14 c661 -67 1672 -13 2160 116
41 11 84 22 96 24 59 13 192 61 284 102 126 56 220 150 220 220 0 36 -42 97
-93 136 -50 38 -183 99 -297 135 -135 43 -151 46 -98 18z"/>
<path d="M2328 623 c7 -3 16 -2 19 1 4 3 -2 6 -13 5 -11 0 -14 -3 -6 -6z"/>
<path d="M2903 413 c9 -2 25 -2 35 0 9 3 1 5 -18 5 -19 0 -27 -2 -17 -5z"/>
</g>
</svg>
